<?xml version="1.0" encoding="UTF-8"?>
<svg width="80" height="80" viewBox="0 0 80 80" fill="none" xmlns="http://www.w3.org/2000/svg">
<path fill-rule="evenodd" clip-rule="evenodd" d="M43.9706 9.04916C35.6589 9.62291 25.3934 1.23904 20.9418 13.2185C13.4997 33.2458 0.675319 53.1452 12.1484 66.0193C16.01 70.3525 44.1504 78.7428 47.3066 78.7011C56.9579 78.5734 56.3888 67.02 57.884 55.4547C60.0798 38.4704 59.8176 18.5157 46.2132 10.5203L43.9706 9.04916Z" fill="#D2D9F1"/>
<path fill-rule="evenodd" clip-rule="evenodd" d="M53.0597 13.0526C61.8245 20.4293 65.975 21.3397 62.3125 25.7044C56.7149 32.3754 55.0404 33.8066 33.434 59.5561C31.6649 61.6644 29.4278 58.696 26.5496 56.4856C23.5413 54.1753 19.8117 52.8391 20.7376 51.5992C31.0483 37.7902 41.1448 27.3215 51.3484 15.1827L53.0597 13.0526Z" stroke="black" stroke-width="2"/>
<path fill-rule="evenodd" clip-rule="evenodd" d="M54.4853 11.6146C55.3426 10.4954 56.6432 9.31842 57.2503 8.51599C57.2503 8.51599 57.5818 7.6667 58.3647 8.10551C59.1477 8.54432 69.3575 16.7005 68.8784 17.5979C68.0114 19.2214 66.6041 20.4423 65.2353 21.6552C64.9195 21.9351 64.4356 22.3715 63.8833 22.0238C61.4679 20.503 58.8252 17.7795 55.5763 15.0533C55.1366 14.6844 53.8822 13.8175 53.6959 12.752C53.6288 12.3682 54.4853 11.6146 54.4853 11.6146Z" stroke="black" stroke-width="2"/>
<path fill-rule="evenodd" clip-rule="evenodd" d="M70.2895 16.1004C71.2428 15.0618 72.1761 13.5765 72.8609 12.8394C72.8609 12.8394 74.3044 10.0403 73.6617 9.00222C72.4102 6.98075 68.5826 4.63452 66.5416 3.02777C64.5937 1.49426 62.2074 2.72222 61.8978 2.96498C60.4495 4.10073 59.4915 5.69857 58.5347 7.25722C58.314 7.61687 57.9682 8.16919 58.4065 8.65266C60.3237 10.7674 63.4646 12.8969 66.7136 15.6231C67.1532 15.992 68.2248 17.0769 69.3065 17.0753C69.6961 17.0748 70.2895 16.1004 70.2895 16.1004Z" stroke="black" stroke-width="2"/>
<path d="M20.2352 52.2982C16.3495 71.7095 16.3575 69.4717 31.3604 60.0802" stroke="black" stroke-width="2" stroke-linecap="round" stroke-linejoin="round"/>
<path d="M53.2861 23.1966C46.0752 32.086 38.8642 40.9754 31.6533 49.8649" stroke="black" stroke-width="2" stroke-linecap="round" stroke-linejoin="round"/>
<path d="M19.2928 57.0778C19.8712 59.744 22.5583 59.8179 22.5583 59.8179C22.5583 59.8179 22.9141 62.2972 26.2065 62.102" stroke="black" stroke-width="2" stroke-linecap="round"/>
<path d="M40.1636 58.3115C45.6575 58.3457 51.4989 57.2801 56.9928 57.3142C59.0773 57.3271 60.8143 58.4398 62.8988 58.4528" stroke="black" stroke-width="2" stroke-linecap="round"/>
<path d="M62.8989 49.7279C59.1219 49.762 55.1059 48.6964 51.3288 48.7305C49.8957 48.7435 48.7015 49.8562 47.2684 49.8691" stroke="black" stroke-width="2" stroke-linecap="round"/>
<path d="M6.06055 58.3115C8.12077 58.3456 10.0944 57.8489 12.1546 57.883C12.9363 57.896 13.8046 58.4398 14.5863 58.4527" stroke="black" stroke-width="2" stroke-linecap="round"/>
<path d="M17.4282 48.871C14.6813 48.8368 11.7606 49.9024 9.0136 49.8683C7.97135 49.8554 7.10285 48.7427 6.0606 48.7297" stroke="black" stroke-width="2" stroke-linecap="round"/>
<path d="M21.6909 66.8952C29.9318 66.9293 38.6939 65.8637 46.9348 65.8978C50.0615 65.9108 52.667 67.0234 55.7938 67.0364" stroke="black" stroke-width="2" stroke-linecap="round"/>
</svg>
