<?xml version="1.0" encoding="UTF-8"?>
<svg width="80" height="82" viewBox="0 0 80 82" fill="none" xmlns="http://www.w3.org/2000/svg">
<path d="M29.3456 11.7887H19.7695C20.1613 10.8974 21.1908 10.3121 21.8079 9.6102C22.6515 8.65059 23.6108 7.8374 24.5165 6.94931C25.6391 5.84857 26.748 4.74102 27.8408 3.60375C28.6528 2.75868 29.6441 2.09712 30.4195 1.21518C30.6214 0.98548 30.9735 0.849274 30.9735 1.2852V5.03534C30.9735 6.77001 30.7642 8.5303 31.3429 10.1393C31.491 10.5511 31.7988 11.7887 31.0967 11.7887H29.3456Z" fill="#FFCD7D"/>
<path fill-rule="evenodd" clip-rule="evenodd" d="M30.1847 1.04388C38.1368 0.782577 47.9481 1.78181 53.6218 1.57021C53.6218 1.57021 58.4983 0.353506 59.442 4.02834C60.3858 7.70318 62.1628 62.1419 56.5425 63.0159C46.3736 64.5971 35.9859 63.3752 25.772 62.2544C23.4152 61.9958 19.7714 61.6201 19.2711 58.926C17.0824 47.1416 19.2711 31.4107 19.2711 13.7372C19.2711 8.8577 30.1847 1.04388 30.1847 1.04388Z" stroke="black" stroke-width="2"/>
<path d="M30.9564 1.2023C31.4211 14.8707 34.6639 11.398 20.5122 10.9053" stroke="black" stroke-width="2"/>
<path d="M30.0703 17.9152C35.0208 17.9397 40.2844 17.1751 45.2348 17.1995C47.1132 17.2088 48.6783 18.0073 50.5566 18.0166" stroke="black" stroke-width="2" stroke-linecap="round"/>
<path d="M65.4731 26.1279C66.9904 26.1524 68.6036 25.3878 70.1208 25.4123C70.6965 25.4215 71.1762 26.22 71.7518 26.2293" stroke="black" stroke-width="2" stroke-linecap="round"/>
<path d="M15.1978 26.1279C13.6805 26.1524 12.0673 25.3877 10.5501 25.4122C9.97442 25.4215 9.49472 26.2199 8.91906 26.2292" stroke="black" stroke-width="2" stroke-linecap="round"/>
<path d="M13.4429 19.5107C11.4503 18.8761 11.1437 17.6739 10.7215 17.1585C10.2523 16.5857 9.70879 16.5684 8.0001 12.9225" stroke="black" stroke-width="2" stroke-linecap="round"/>
<path d="M14.0708 31.4012C12.0782 32.0358 11.7716 33.238 11.3494 33.7534C10.8802 34.3262 10.3367 34.3435 8.62803 37.9894" stroke="black" stroke-width="2" stroke-linecap="round"/>
<path d="M29.9917 24.0746C35.7066 24.0991 41.783 23.3344 47.4979 23.3589C49.6663 23.3682 51.4731 24.1667 53.6415 24.176" stroke="black" stroke-width="2" stroke-linecap="round"/>
<path d="M29.9917 29.2077C35.7066 29.2322 37.5907 30.0577 43.3057 30.0822C45.474 30.0915 51.4731 29.2998 53.6415 29.3091" stroke="black" stroke-width="2" stroke-linecap="round"/>
<path d="M64.5537 19.5108C66.5463 18.8762 66.8529 17.674 67.2751 17.1586C67.7443 16.5857 68.2878 16.5685 69.9965 12.9225" stroke="black" stroke-width="2" stroke-linecap="round"/>
<path d="M65.1816 31.4012C67.1742 32.0359 67.4808 33.238 67.903 33.7535C68.3722 34.3263 68.9157 34.3435 70.6244 37.9895" stroke="black" stroke-width="2" stroke-linecap="round"/>
<path d="M41.6132 77.9182C41.6117 77.0448 41.5825 76.2641 41.2847 75.4302C40.8873 74.3176 40.7002 73.0705 40.141 72.0321C39.2624 70.4004 38.109 69.0681 36.973 67.5956C36.3625 66.8042 35.5537 66.0696 34.8698 65.3478C34.4565 64.9115 34.1671 64.4084 33.7459 63.9872C33.0614 63.3027 32.2047 61.8591 32.1487 60.8521C32.1018 60.0066 31.847 59.1554 32.267 58.4202C32.7687 57.5424 33.9508 57.4212 34.8435 57.4212C36.0993 57.4212 37.1125 58.2828 38.0115 59.0183C39.1928 59.9849 40.1992 61.1934 40.9298 62.5084C41.1087 62.8305 41.6179 63.2536 41.2321 62.7713C40.9429 62.4097 40.8674 61.976 40.7874 61.5156L40.7852 61.5028C40.5213 59.9858 40.381 58.3193 39.9307 56.8559C39.7314 56.208 39.7828 55.4687 39.6941 54.7921C39.574 53.8762 39.4838 52.8334 39.4838 51.9199C39.4838 50.5778 39.3655 49.2982 39.3655 47.9566C39.3655 46.4878 39.2794 45.085 40.3711 43.9933C41.217 43.1474 42.79 42.7973 43.7165 43.7238C44.365 44.3723 44.8752 44.9356 45.0705 45.8534C45.3776 47.2969 45.645 48.6528 45.7475 50.1387C45.784 50.6678 45.7782 51.2046 45.7682 51.7403C46.1049 50.9716 47.0237 50.3228 47.8244 50.3228C49.7273 50.3228 50.5564 52.0577 50.9333 53.7537C50.9387 53.778 50.9451 53.8143 50.952 53.86C51.0952 52.5749 51.235 51.1509 52.8788 51.1509C53.729 51.1509 54.5386 51.115 55.1923 51.7687C55.9541 52.5305 56.4354 53.9425 56.5134 54.9959C56.5249 55.1508 56.53 55.3068 56.5315 55.4632C56.641 55.093 56.8264 54.7487 57.1115 54.4635C57.8576 53.7175 59.9358 53.6748 60.3058 54.8776C61.1364 57.5769 60.7791 60.6172 60.7791 63.4286C60.7791 65.5371 60.9772 68.0276 60.0101 69.9617C59.5931 70.7957 59.0614 71.5841 58.7087 72.4462C58.3076 73.4266 58.1003 74.2314 57.9134 75.2593C57.8493 75.6121 57.9596 79.0443 57.8674 79.0648C57.1917 79.215 56.4389 79.1244 55.751 79.262C54.9289 79.4264 54.09 79.6367 53.2731 79.8338C52.1996 80.0929 51.0779 80.1624 50.0131 80.3991C49.33 80.5509 48.5504 80.702 47.8573 80.7277C47.3843 80.7452 46.7481 80.6042 46.293 80.7343C45.5841 80.9368 44.7613 80.9643 43.9795 80.9643C43.472 80.9643 42.1305 81.1531 41.8499 80.662C41.4441 79.9518 41.6092 78.7375 41.6132 77.9182Z" fill="#FFCD7D"/>
<path d="M44.5557 77.0259C44.5557 76.1165 44.5349 75.3114 44.2271 74.4494C43.8297 73.3369 43.6425 72.0897 43.0834 71.0513C42.2048 69.4196 41.0514 68.0874 39.9154 66.6148C39.3049 65.8234 38.496 65.0888 37.8122 64.367C37.3988 63.9307 37.1095 63.4277 36.6883 63.0065C36.0037 62.3219 35.1471 60.8783 35.0911 59.8713C35.0442 59.0259 34.7893 58.1746 35.2094 57.4395C35.711 56.5616 36.8932 56.4404 37.7859 56.4404C39.0417 56.4404 40.0549 57.302 40.9539 58.0376C42.1352 59.0041 43.1416 60.2127 43.8721 61.5276C44.0511 61.8497 44.5603 62.2728 44.1745 61.7905C43.8826 61.4256 43.8084 60.9872 43.7275 60.522C43.4637 59.0051 43.3234 57.3386 42.8731 55.8752C42.6737 55.2272 42.7252 54.4879 42.6365 53.8114C42.5164 52.8954 42.4262 51.8526 42.4262 50.9391C42.4262 49.597 42.3079 48.3174 42.3079 46.9758C42.3079 45.507 42.2218 44.1042 43.3135 43.0125C44.1594 42.1667 45.7324 41.8165 46.6589 42.7431C47.3074 43.3915 47.8176 43.9548 48.0129 44.8726C48.32 46.3161 48.5874 47.6721 48.6899 49.1579C48.7493 50.0201 48.6964 50.9026 48.6964 51.7673C48.6964 52.515 48.5781 51.6446 48.5781 51.3532C48.5781 50.3578 49.765 49.342 50.7668 49.342C52.6696 49.342 53.4988 51.0769 53.8757 52.7729C53.9273 53.0053 54.0699 54.3269 53.8757 54.5212C53.5683 54.8286 53.7779 53.7216 53.7902 53.6536C54.045 52.2526 53.8333 50.1701 55.8212 50.1701C56.6714 50.1701 57.481 50.1342 58.1347 50.788C58.8965 51.5497 59.3778 52.9617 59.4558 54.0151C59.4933 54.5212 59.4624 55.039 59.4624 55.5465C59.4624 55.9312 59.3441 55.7216 59.3441 55.4414C59.3441 54.7259 59.5315 54.0051 60.0539 53.4827C60.8 52.7367 62.8781 52.694 63.2482 53.8968C64.0788 56.5961 63.7215 59.6364 63.7215 62.4478C63.7215 64.5563 63.9195 67.0468 62.9525 68.981C62.5355 69.8149 62.0037 70.6034 61.6511 71.4654C61.25 72.4458 61.0427 73.2506 60.8558 74.2785C60.7916 74.6313 60.9019 78.0636 60.8098 78.0841C60.1341 78.2342 59.3813 78.1437 58.6934 78.2812C57.8712 78.4457 57.0324 78.6559 56.2155 78.853C55.142 79.1122 54.0203 79.1817 52.9555 79.4183C52.2724 79.5701 51.4928 79.7213 50.7997 79.7469C50.3267 79.7644 49.6905 79.6235 49.2354 79.7535C48.5264 79.9561 47.7037 79.9835 46.9218 79.9835C46.4144 79.9835 45.0729 80.1723 44.7923 79.6812C44.3815 78.9623 44.5557 77.7269 44.5557 76.9076" stroke="black" stroke-width="2" stroke-linecap="round"/>
<path d="M40.34 41.4045C40.2396 40.9277 39.2744 40.5204 38.9002 40.2846C38.1842 39.8335 37.4637 39.3943 36.7452 38.9484C36.1202 38.5604 35.3966 38.0783 34.6655 37.932" stroke="black" stroke-width="2" stroke-linecap="round"/>
<path d="M45.1676 39.2025C45.1676 38.5109 45.1676 37.8192 45.1676 37.1276C45.1676 36.7559 44.88 36.4459 44.8335 36.0736C44.802 35.8213 44.8437 35.5602 44.8288 35.3067C44.8173 35.1116 44.5747 34.9322 44.5747 34.7138" stroke="black" stroke-width="2" stroke-linecap="round"/>
<path d="M48.3008 39.8801C48.8672 38.7472 49.5834 37.7506 50.4605 36.8735C50.7779 36.5561 51.0835 36.4077 51.5191 36.4077" stroke="black" stroke-width="2" stroke-linecap="round"/>
</svg>
